<svg id="Layer_1" viewBox="0 0 64 64" xmlns="http://www.w3.org/2000/svg" data-name="Layer 1"><path d="m56.217 29.225h-5.36v-3.05a3 3 0 0 0 -2.39-2.937v-3.638l1.751-1.738a1 1 0 1 0 -1.408-1.42l-2.047 2.032a1 1 0 0 0 -.3.71v4.056a3 3 0 0 0 -2.391 2.937v3.05h-11.019l-6.153-20.156a3 3 0 0 0 2.388-2.936v-.41a3 3 0 0 0 -3-3h-19.755a3 3 0 0 0 -3 3v.41a3 3 0 0 0 2.792 2.979l-.153 17.162a5.325 5.325 0 0 0 -4.1 5.169 1 1 0 0 0 1 1h5.517a15.406 15.406 0 1 0 20.534 21.73h14.011a8.569 8.569 0 0 0 16.885 0h.518a2.728 2.728 0 0 0 2.721-2.729v-15.181a7.048 7.048 0 0 0 -7.041-7.04zm-10.141-3.05a1 1 0 0 1 1-1h.78a1 1 0 0 1 1 1v3.05h-2.78zm-18.511 3.05a21.022 21.022 0 0 0 -11.342-2.989h-8.051l.152-17.1h16.5l6.139 20.09zm-22.032-23.09v-.41a1 1 0 0 1 1-1h19.75a1 1 0 0 1 1 1v.41a1 1 0 0 1 -1 1h-19.75a1 1 0 0 1 -1-1zm-1.323 24.31a3.42 3.42 0 0 1 2.37-2.21h9.643a18.951 18.951 0 0 1 10.525 2.841 17 17 0 0 1 3.337 2.843 14.925 14.925 0 0 1 3.934 9.7h-2.6c-.04-.225-.091-.446-.141-.669a16.46 16.46 0 0 0 -3.591-7.3 14.783 14.783 0 0 0 -5.371-3.915 14.331 14.331 0 0 0 -5.216-1.29zm23.376 22.39a3.432 3.432 0 0 1 -3.586-.622 9.77 9.77 0 0 0 2.2-5.389 5.882 5.882 0 0 0 3.354-1.324c0 .12.019.237.019.357a13.349 13.349 0 0 1 -1.862 6.813c-.032.055-.069.106-.1.16-.011.002-.017.001-.024.005zm-11.432 1.13a8.113 8.113 0 1 1 6.983-3.991 8.115 8.115 0 0 1 -6.982 3.991zm0-21.52a13.184 13.184 0 0 1 4.69.89 14.422 14.422 0 0 1 2.3 1.108 3.4 3.4 0 0 1 -.627 3.571 10.1 10.1 0 0 0 -5.396-2.214 5.873 5.873 0 0 0 -1.325-3.34c.12 0 .237-.015.357-.015zm13 10.315a3.454 3.454 0 0 1 -2.948 2.033 10.073 10.073 0 0 0 -2.263-5.356 5.882 5.882 0 0 0 1.43-3.295c.179.168.361.328.534.511l.02.021a12.569 12.569 0 0 1 1.183 1.462l.013.02a14.483 14.483 0 0 1 2.031 4.604zm-16.16-9.924c.006 0 .01.007.016.009a3.456 3.456 0 0 1 2.081 2.966 10.058 10.058 0 0 0 -5.363 2.257 5.877 5.877 0 0 0 -3.3-1.425 13.4 13.4 0 0 1 6.566-3.806zm-8.275 6.049c.007 0 .014 0 .021-.007a3.4 3.4 0 0 1 3.571.625 10.049 10.049 0 0 0 -2.211 5.397 5.876 5.876 0 0 0 -3.34 1.325c0-.123-.019-.243-.019-.367a13.309 13.309 0 0 1 1.978-6.973zm-1.582 10.139.008-.016a3.454 3.454 0 0 1 2.967-2.081 10.067 10.067 0 0 0 2.257 5.361 5.875 5.875 0 0 0 -1.426 3.295 13.408 13.408 0 0 1 -3.806-6.559zm6.049 8.276v-.012a3.43 3.43 0 0 1 .614-3.582 10.047 10.047 0 0 0 5.392 2.21 5.872 5.872 0 0 0 1.331 3.347c-.124 0-.248.012-.373.012a13.3 13.3 0 0 1 -6.964-1.975zm10.138 1.585c-.011 0-.018-.012-.029-.015a3.4 3.4 0 0 1 -2.085-2.975 10.135 10.135 0 0 0 5.361-2.257 5.89 5.89 0 0 0 3.315 1.439 13.5 13.5 0 0 1 -6.562 3.808zm32.252.39a6.588 6.588 0 0 1 -6.562-6.164c-.009-.139-.018-.277-.018-.416a6.58 6.58 0 1 1 13.159 0c0 .139-.009.277-.018.417a6.588 6.588 0 0 1 -6.561 6.163zm8.96-7.1h-.406a8.568 8.568 0 0 0 -17.106 0h-12.814a15.375 15.375 0 0 0 1.363-6.319c0-.081-.012-.16-.013-.24h3.483.019 7.32a1 1 0 0 0 0-2h-6.382a17.107 17.107 0 0 0 -4.442-11.042c-.44-.48-.9-.923-1.364-1.345h26.023a5.029 5.029 0 0 1 4.989 4.53h-8.539a1 1 0 0 0 0 2h8.59v1.838h-5.033a1 1 0 0 0 0 2h5.033v1.839h-2.1a1 1 0 0 0 0 2h2.1v6.014a.726.726 0 0 1 -.721.725z"/><path d="m51.578 49.24a3.455 3.455 0 1 0 3.454 3.46 3.459 3.459 0 0 0 -3.454-3.46zm0 4.91a1.455 1.455 0 1 1 1.454-1.45 1.456 1.456 0 0 1 -1.454 1.45z"/><path d="m16.157 41.259a4.6 4.6 0 1 0 3 1.113 4.605 4.605 0 0 0 -3-1.113zm2.243 5.922a2.6 2.6 0 1 1 -2.241-3.922 2.6 2.6 0 0 1 2.241 3.922z"/><path d="m28.905 26.6-4.754-15.556a1 1 0 0 0 -.957-.708h-12.694a1 1 0 0 0 -1 .991l-.113 12.7a1 1 0 0 0 1 1.009h5.832a22.54 22.54 0 0 1 11.233 2.729 1 1 0 0 0 1.453-1.165zm-12.682-3.565h-4.823l.1-10.7h10.955l3.861 12.637a25.476 25.476 0 0 0 -10.093-1.937z"/><path d="m39.164 36.858a1 1 0 1 0 -1.707 1.042l1.582 2.588a1 1 0 0 0 1.707-1.043z"/><path d="m43.349 36.858a1 1 0 1 0 -1.707 1.042l1.583 2.588a1 1 0 0 0 1.707-1.043z"/><path d="m47.534 36.858a1 1 0 1 0 -1.707 1.042l1.582 2.588a1 1 0 0 0 1.707-1.043z"/><path d="m41.331 15.942a.994.994 0 0 1 -.522-.148 7.01 7.01 0 0 0 -7.021-.1 1 1 0 0 1 -1-1.734 9.042 9.042 0 0 1 9.064.132 1 1 0 0 1 -.524 1.852z"/><path d="m39.4 18.948a1 1 0 0 1 -.542-.16 3.1 3.1 0 0 0 -3.153-.087 1 1 0 0 1 -.991-1.737 5.132 5.132 0 0 1 5.23.145 1 1 0 0 1 -.544 1.84z"/><circle cx="37.34" cy="20.668" r="1"/></svg>